<mxfile host="app.diagrams.net" agent="Mozilla/5.0 (Windows NT 10.0; Win64; x64) AppleWebKit/537.36 (KHTML, like Gecko) Chrome/141.0.0.0 Safari/537.36" version="28.2.7">
  <diagram name="Page-1" id="CG6VzBT6TGSni8sAfczl">
    <mxGraphModel dx="672" dy="370" grid="1" gridSize="10" guides="1" tooltips="1" connect="1" arrows="1" fold="1" page="1" pageScale="1" pageWidth="1169" pageHeight="1654" math="0" shadow="0">
      <root>
        <mxCell id="0" />
        <mxCell id="1" parent="0" />
        <mxCell id="QiRjHFocJS6x8Pd-hhBX-11" value="" style="endArrow=classic;html=1;rounded=0;" edge="1" parent="1">
          <mxGeometry width="50" height="50" relative="1" as="geometry">
            <mxPoint x="592" y="237.79" as="sourcePoint" />
            <mxPoint x="450" y="250" as="targetPoint" />
          </mxGeometry>
        </mxCell>
        <mxCell id="QiRjHFocJS6x8Pd-hhBX-12" value="" style="endArrow=classic;html=1;rounded=0;" edge="1" parent="1">
          <mxGeometry width="50" height="50" relative="1" as="geometry">
            <mxPoint x="585" y="212.58" as="sourcePoint" />
            <mxPoint x="632" y="383" as="targetPoint" />
          </mxGeometry>
        </mxCell>
        <mxCell id="QiRjHFocJS6x8Pd-hhBX-1" value="" style="shape=parallelogram;perimeter=parallelogramPerimeter;whiteSpace=wrap;html=1;fixedSize=1;size=50;rotation=-180;flipV=1;" vertex="1" parent="1">
          <mxGeometry x="470" y="150" width="250" height="180" as="geometry" />
        </mxCell>
        <mxCell id="QiRjHFocJS6x8Pd-hhBX-2" value="" style="shape=parallelogram;perimeter=parallelogramPerimeter;whiteSpace=wrap;html=1;fixedSize=1;size=10;rotation=-180;flipV=1;" vertex="1" parent="1">
          <mxGeometry x="480" y="160" width="60" height="31.58" as="geometry" />
        </mxCell>
        <mxCell id="QiRjHFocJS6x8Pd-hhBX-3" value="" style="shape=parallelogram;perimeter=parallelogramPerimeter;whiteSpace=wrap;html=1;fixedSize=1;size=10;rotation=-180;flipV=1;" vertex="1" parent="1">
          <mxGeometry x="493" y="200" width="60" height="31.58" as="geometry" />
        </mxCell>
        <mxCell id="QiRjHFocJS6x8Pd-hhBX-4" value="" style="shape=parallelogram;perimeter=parallelogramPerimeter;whiteSpace=wrap;html=1;fixedSize=1;size=10;rotation=-180;flipV=1;" vertex="1" parent="1">
          <mxGeometry x="506" y="241" width="60" height="31.58" as="geometry" />
        </mxCell>
        <mxCell id="QiRjHFocJS6x8Pd-hhBX-5" value="" style="shape=parallelogram;perimeter=parallelogramPerimeter;whiteSpace=wrap;html=1;fixedSize=1;size=10;rotation=-180;flipV=1;" vertex="1" parent="1">
          <mxGeometry x="521" y="285" width="60" height="31.58" as="geometry" />
        </mxCell>
        <mxCell id="QiRjHFocJS6x8Pd-hhBX-6" value="" style="shape=parallelogram;perimeter=parallelogramPerimeter;whiteSpace=wrap;html=1;fixedSize=1;size=10;rotation=-180;flipV=1;" vertex="1" parent="1">
          <mxGeometry x="609" y="159" width="60" height="31.58" as="geometry" />
        </mxCell>
        <mxCell id="QiRjHFocJS6x8Pd-hhBX-7" value="" style="shape=parallelogram;perimeter=parallelogramPerimeter;whiteSpace=wrap;html=1;fixedSize=1;size=10;rotation=-180;flipV=1;" vertex="1" parent="1">
          <mxGeometry x="621" y="197" width="60" height="31.58" as="geometry" />
        </mxCell>
        <mxCell id="QiRjHFocJS6x8Pd-hhBX-8" value="" style="shape=parallelogram;perimeter=parallelogramPerimeter;whiteSpace=wrap;html=1;fixedSize=1;size=10;rotation=-180;flipV=1;" vertex="1" parent="1">
          <mxGeometry x="635" y="240" width="60" height="31.58" as="geometry" />
        </mxCell>
        <mxCell id="QiRjHFocJS6x8Pd-hhBX-9" value="" style="shape=parallelogram;perimeter=parallelogramPerimeter;whiteSpace=wrap;html=1;fixedSize=1;size=10;rotation=-180;flipV=1;" vertex="1" parent="1">
          <mxGeometry x="648" y="281" width="60" height="31.58" as="geometry" />
        </mxCell>
        <mxCell id="QiRjHFocJS6x8Pd-hhBX-10" value="" style="endArrow=classic;html=1;rounded=0;" edge="1" parent="1">
          <mxGeometry width="50" height="50" relative="1" as="geometry">
            <mxPoint x="592" y="237.79" as="sourcePoint" />
            <mxPoint x="592" y="107.79" as="targetPoint" />
          </mxGeometry>
        </mxCell>
        <mxCell id="QiRjHFocJS6x8Pd-hhBX-19" value="x" style="text;html=1;whiteSpace=wrap;strokeColor=none;fillColor=none;align=center;verticalAlign=middle;rounded=0;" vertex="1" parent="1">
          <mxGeometry x="436" y="243" width="60" height="30" as="geometry" />
        </mxCell>
        <mxCell id="QiRjHFocJS6x8Pd-hhBX-20" value="y" style="text;html=1;whiteSpace=wrap;strokeColor=none;fillColor=none;align=center;verticalAlign=middle;rounded=0;" vertex="1" parent="1">
          <mxGeometry x="596" y="348" width="45" height="40" as="geometry" />
        </mxCell>
        <mxCell id="QiRjHFocJS6x8Pd-hhBX-21" value="z" style="text;html=1;whiteSpace=wrap;strokeColor=none;fillColor=none;align=center;verticalAlign=middle;rounded=0;" vertex="1" parent="1">
          <mxGeometry x="549" y="110" width="60" height="30" as="geometry" />
        </mxCell>
      </root>
    </mxGraphModel>
  </diagram>
</mxfile>
